<svg xmlns="http://www.w3.org/2000/svg" viewBox="0 0 238.5 238.5"><defs><style>.cls-1{fill:#dfc900;}.cls-2{fill:#11135b;}.cls-3{fill:#003be9;}.cls-4{fill:#ff5c00;}.cls-5{fill:#f6ef00;}.cls-6{fill:#ebeeed;}</style></defs><g id="Capa_2" data-name="Capa 2"><g id="Capa_1-2" data-name="Capa 1"><path class="cls-1" d="M184.27,173.48l54.23-54.23L184.27,65l-17.5,17.5L156,71.73l17.5-17.5L119.25,0,65,54.23l17.5,17.5L71.73,82.53,54.23,65,0,119.25l54.23,54.23L71.73,156l10.79,10.8L65,184.28l54.23,54.22,54.23-54.22L156,166.78,166.77,156Zm-28-16.93H130l26.22,26.22-37,37-37-37,26.22-26.22H81.65V130L55.4,156.25l-37-37,37-37L81.65,108.5V82h26.68L82,55.57l37-37,37,37L129.57,82h26.68v26.3l26-26,37,37-37,37-26-26Z"/><polygon class="cls-2" points="156.25 182.77 119.25 219.77 82.25 182.77 108.47 156.55 130.03 156.55 156.25 182.77"/><polygon class="cls-3" points="219.25 119.25 182.25 156.25 156.25 130.25 156.25 108.25 182.25 82.25 219.25 119.25"/><polygon class="cls-2" points="155.95 55.57 129.57 81.95 108.33 81.95 81.95 55.57 118.95 18.57 155.95 55.57"/><polygon class="cls-4" points="81.65 108.5 81.65 130 55.4 156.25 18.4 119.25 55.4 82.25 81.65 108.5"/><polygon class="cls-5" points="98.03 161.99 98.03 140.17 76.21 140.17 55.29 119.25 76.33 98.22 97.92 98.22 97.92 76.63 118.95 55.6 139.64 76.28 139.64 98.57 161.92 98.57 182.61 119.25 161.99 139.87 140.12 139.87 140.12 161.75 118.95 182.91 98.03 161.99"/><path class="cls-6" d="M119,60.55l17.19,17.18v24.34h24.33l17.19,17.18-17.11,17.12H136.62V160.3L119,178l-17.42-17.42V136.67H77.66L60.24,119.25l17.54-17.53h23.63V78.08L119,60.55m0-9.9L94.41,75.18V94.72H74.88L50.34,119.25l24.42,24.42H94.53v19.77L119,187.86l24.67-24.66V143.37h19.82l24.12-24.12L163.37,95.07H143.14V74.83L119,50.65Z"/></g></g></svg>